<svg width="512" height="512" viewBox="0 0 512 512" fill="none" xmlns="http://www.w3.org/2000/svg">
<rect x="7.5" y="7.5" width="497" height="497" fill="url(#paint0_linear)" stroke="#F44900" stroke-width="15"/>
<path d="M47.9297 263.18L86.3906 276.117V297.703L24.2344 272.391V253.688L86.3906 228.375V249.891L47.9297 263.18ZM382.125 314.789H365.32L400.266 203.625H417.141L382.125 314.789ZM464.039 262.969L425.789 249.961V228.445L487.594 253.758V272.461L425.789 297.773V276.258L464.039 262.969Z" fill="#F44900"/>
<path d="M154.945 278.789C154.945 275.18 153.656 272.367 151.078 270.352C148.547 268.336 144.07 266.25 137.648 264.094C131.227 261.938 125.977 259.852 121.898 257.836C108.633 251.32 102 242.367 102 230.977C102 225.305 103.641 220.312 106.922 216C110.25 211.641 114.938 208.266 120.984 205.875C127.031 203.438 133.828 202.219 141.375 202.219C148.734 202.219 155.32 203.531 161.133 206.156C166.992 208.781 171.539 212.531 174.773 217.406C178.008 222.234 179.625 227.766 179.625 234H155.016C155.016 229.828 153.727 226.594 151.148 224.297C148.617 222 145.172 220.852 140.812 220.852C136.406 220.852 132.914 221.836 130.336 223.805C127.805 225.727 126.539 228.188 126.539 231.188C126.539 233.812 127.945 236.203 130.758 238.359C133.57 240.469 138.516 242.672 145.594 244.969C152.672 247.219 158.484 249.656 163.031 252.281C174.094 258.656 179.625 267.445 179.625 278.648C179.625 287.602 176.25 294.633 169.5 299.742C162.75 304.852 153.492 307.406 141.727 307.406C133.43 307.406 125.906 305.93 119.156 302.977C112.453 299.977 107.391 295.898 103.969 290.742C100.594 285.539 98.9062 279.562 98.9062 272.812H123.656C123.656 278.297 125.062 282.352 127.875 284.977C130.734 287.555 135.352 288.844 141.727 288.844C145.805 288.844 149.016 287.977 151.359 286.242C153.75 284.461 154.945 281.977 154.945 278.789ZM230.461 237.656L247.195 203.625H275.391L246.773 254.391L276.164 306H247.688L230.461 271.336L213.234 306H184.828L214.148 254.391L185.602 203.625H213.727L230.461 237.656ZM364.617 222.68H333.891V306H309.211V222.68H279.047V203.625H364.617V222.68Z" fill="#393939"/>
<defs>
<linearGradient id="paint0_linear" x1="-12.5388" y1="254.726" x2="495.282" y2="254.726" gradientUnits="userSpaceOnUse">
<stop stop-color="white"/>
<stop offset="1" stop-color="#C4C4C4" stop-opacity="0"/>
</linearGradient>
</defs>
</svg>
